{
  "accessors": [
    {
      "bufferView": 2,
      "componentType": 5126,
      "count": 272,
      "max": [
        3.2113304138183594,
        6.2725677490234375,
        68.39266967773438
      ],
      "min": [
        -68.48902893066406,
        -66.62123107910156,
        0.7412948608398438
      ],
      "type": "VEC3"
    },
    {
      "bufferView": 2,
      "byteOffset": 3264,
      "componentType": 5126,
      "count": 272,
      "max": [
        0.9980620741844177,
        0.9880688190460205,
        0.2963860034942627
      ],
      "min": [
        -0.9597683548927307,
        -0.9798249006271362,
        2.348456473555416e-05
      ],
      "type": "VEC3"
    },
    {
      "bufferView": 1,
      "componentType": 5126,
      "count": 272,
      "max": [
        0.4969986081123352,
        0.5453715324401855
      ],
      "min": [
        0.002756522037088871,
        0.0677214190363884
      ],
      "type": "VEC2"
    },
    {
      "bufferView": 0,
      "componentType": 5125,
      "count": 1056,
      "type": "SCALAR"
    },
    {
      "bufferView": 2,
      "byteOffset": 6528,
      "componentType": 5126,
      "count": 310,
      "max": [
        -6.163002014160156,
        67.5125732421875,
        76.91513061523438
      ],
      "min": [
        -65.08929443359375,
        3.558856964111328,
        0.9519004821777344
      ],
      "type": "VEC3"
    },
    {
      "bufferView": 2,
      "byteOffset": 10248,
      "componentType": 5126,
      "count": 310,
      "max": [
        0.9999960660934448,
        0.9949316382408142,
        0.005056471563875675
      ],
      "min": [
        -0.9796008467674255,
        -0.5835056900978088,
        0.0027015884406864643
      ],
      "type": "VEC3"
    },
    {
      "bufferView": 1,
      "byteOffset": 2176,
      "componentType": 5126,
      "count": 310,
      "max": [
        0.5371544361114502,
        0.9792618155479431
      ],
      "min": [
        0.0035850636195391417,
        0.5587824583053589
      ],
      "type": "VEC2"
    },
    {
      "bufferView": 0,
      "byteOffset": 4224,
      "componentType": 5125,
      "count": 1140,
      "type": "SCALAR"
    },
    {
      "bufferView": 2,
      "byteOffset": 13968,
      "componentType": 5126,
      "count": 260,
      "max": [
        50.39935302734375,
        -28.689010620117188,
        61.29688262939453
      ],
      "min": [
        19.90137481689453,
        -59.89772033691406,
        3.7133445739746094
      ],
      "type": "VEC3"
    },
    {
      "bufferView": 2,
      "byteOffset": 17088,
      "componentType": 5126,
      "count": 260,
      "max": [
        1.0,
        0.965925931930542,
        4.446905279564817e-07
      ],
      "min": [
        -0.9961948394775391,
        -0.9848077893257141,
        -2.76869315030126e-07
      ],
      "type": "VEC3"
    },
    {
      "bufferView": 1,
      "byteOffset": 4656,
      "componentType": 5126,
      "count": 260,
      "max": [
        0.9641657471656799,
        0.2735481858253479
      ],
      "min": [
        0.5488967299461365,
        0.07379936426877975
      ],
      "type": "VEC2"
    },
    {
      "bufferView": 0,
      "byteOffset": 8784,
      "componentType": 5125,
      "count": 960,
      "type": "SCALAR"
    }
  ],
  "asset": {
    "extras": {
      "author": "Joanne Viertel (https://sketchfab.com/tokume)",
      "license": "CC-BY-4.0 (http://creativecommons.org/licenses/by/4.0/)",
      "source": "https://sketchfab.com/3d-models/3-pine-bushes-ddac4359daa94d6ea8e98832870b1e0e",
      "title": "3 pine bushes?"
    },
    "generator": "Sketchfab-12.68.0",
    "version": "2.0"
  },
  "bufferViews": [
    {
      "buffer": 0,
      "byteLength": 12624,
      "name": "floatBufferViews",
      "target": 34963
    },
    {
      "buffer": 0,
      "byteLength": 6736,
      "byteOffset": 12624,
      "byteStride": 8,
      "name": "floatBufferViews",
      "target": 34962
    },
    {
      "buffer": 0,
      "byteLength": 20208,
      "byteOffset": 19360,
      "byteStride": 12,
      "name": "floatBufferViews",
      "target": 34962
    }
  ],
  "buffers": [
    {
      "byteLength": 39568,
      "uri": "scene.bin"
    }
  ],
  "images": [
    {
      "uri": "textures/Material_25_baseColor.png"
    }
  ],
  "materials": [
    {
      "alphaMode": "BLEND",
      "doubleSided": true,
      "name": "Material_25",
      "pbrMetallicRoughness": {
        "baseColorTexture": {
          "index": 0
        },
        "metallicFactor": 0.0,
        "roughnessFactor": 0.6
      }
    }
  ],
  "meshes": [
    {
      "name": "Plane001_Material #25_0",
      "primitives": [
        {
          "attributes": {
            "NORMAL": 1,
            "POSITION": 0,
            "TEXCOORD_0": 2
          },
          "indices": 3,
          "material": 0,
          "mode": 4
        }
      ]
    },
    {
      "name": "Plane009_Material #25_0",
      "primitives": [
        {
          "attributes": {
            "NORMAL": 5,
            "POSITION": 4,
            "TEXCOORD_0": 6
          },
          "indices": 7,
          "material": 0,
          "mode": 4
        }
      ]
    },
    {
      "name": "Plane019_Material #25_0",
      "primitives": [
        {
          "attributes": {
            "NORMAL": 9,
            "POSITION": 8,
            "TEXCOORD_0": 10
          },
          "indices": 11,
          "material": 0,
          "mode": 4
        }
      ]
    }
  ],
  "nodes": [
    {
      "children": [
        1
      ],
      "matrix": [
        1.0,
        0.0,
        0.0,
        0.0,
        0.0,
        2.220446049250313e-16,
        -1.0,
        0.0,
        0.0,
        1.0,
        2.220446049250313e-16,
        0.0,
        0.0,
        0.0,
        0.0,
        1.0
      ],
      "name": "Sketchfab_model"
    },
    {
      "children": [
        2
      ],
      "matrix": [
        0.009999999776482582,
        0.0,
        0.0,
        0.0,
        0.0,
        0.0,
        0.009999999776482582,
        0.0,
        0.0,
        -0.009999999776482582,
        0.0,
        0.0,
        0.0,
        0.0,
        0.0,
        1.0
      ],
      "name": "c55ea6fde14d45768f14db83ed6fa5d9.fbx"
    },
    {
      "children": [
        3,
        6,
        9
      ],
      "name": "RootNode"
    },
    {
      "children": [
        4
      ],
      "matrix": [
        1.0,
        0.0,
        0.0,
        0.0,
        0.0,
        2.220446049250313e-16,
        -1.0,
        0.0,
        0.0,
        1.0,
        2.220446049250313e-16,
        0.0,
        -32.54203414916992,
        0.25128936767578125,
        30.797760009765625,
        1.0
      ],
      "name": "Plane001"
    },
    {
      "children": [
        5
      ],
      "matrix": [
        1.0,
        0.0,
        -0.0,
        0.0,
        0.0,
        1.0,
        0.0,
        0.0,
        0.0,
        0.0,
        1.0,
        0.0,
        31.675575256347656,
        30.410499572753906,
        -0.25128936767578125,
        1.0
      ],
      "name": "Object_4"
    },
    {
      "mesh": 0,
      "name": "Plane001_Material #25_0"
    },
    {
      "children": [
        7
      ],
      "matrix": [
        0.9998405513607606,
        0.0,
        0.017856983356947215,
        0.0,
        0.017856983356947215,
        0.0,
        -0.9998405513607607,
        0.0,
        0.0,
        1.0,
        0.0,
        0.0,
        -33.77092361450195,
        0.9370250701904297,
        -35.351924896240234,
        1.0
      ],
      "name": "Plane009"
    },
    {
      "children": [
        8
      ],
      "matrix": [
        0.9998405512812436,
        0.01785698780922785,
        0.0,
        0.0,
        -0.01785698780922785,
        0.9998405512812436,
        -0.0,
        0.0,
        -0.0,
        0.0,
        1.0,
        0.0,
        33.569950103759766,
        -34.611717224121094,
        -0.9370250701904297,
        1.0
      ],
      "name": "Object_7"
    },
    {
      "mesh": 1,
      "name": "Plane009_Material #25_0"
    },
    {
      "children": [
        10
      ],
      "matrix": [
        0.9381070137023926,
        0.0,
        0.0,
        0.0,
        0.0,
        2.083016012349487e-16,
        -0.9381070137023926,
        0.0,
        0.0,
        1.0,
        2.220446049250313e-16,
        0.0,
        32.63234329223633,
        3.874523162841797,
        41.87735366821289,
        1.0
      ],
      "name": "Plane019"
    },
    {
      "children": [
        11
      ],
      "matrix": [
        1.0,
        0.0,
        -0.0,
        0.0,
        0.0,
        1.0,
        0.0,
        0.0,
        0.0,
        0.0,
        1.0,
        0.0,
        -35.29796600341797,
        44.26361846923828,
        -3.874523162841797,
        1.0
      ],
      "name": "Object_10"
    },
    {
      "mesh": 2,
      "name": "Plane019_Material #25_0"
    }
  ],
  "samplers": [
    {
      "magFilter": 9729,
      "minFilter": 9987,
      "wrapS": 10497,
      "wrapT": 10497
    }
  ],
  "scene": 0,
  "scenes": [
    {
      "name": "Sketchfab_Scene",
      "nodes": [
        0
      ]
    }
  ],
  "textures": [
    {
      "sampler": 0,
      "source": 0
    }
  ]
}
